<?xml version="1.0" encoding="utf-8"?>
<!-- Generator: Adobe Illustrator 19.0.0, SVG Export Plug-In . SVG Version: 6.00 Build 0)  -->
<svg version="1.1" id="Laag_1" xmlns="http://www.w3.org/2000/svg" xmlns:xlink="http://www.w3.org/1999/xlink" x="0px" y="0px"
	 viewBox="0 0 356.3 189" style="enable-background:new 0 0 356.3 189;" xml:space="preserve">
<style type="text/css">
	.st0{fill:#010203;}
	.st1{fill:#F0F0EF;}
	.st2{fill:#EFEFEF;}
	.st3{fill:#E6007E;}
</style>
<g id="XMLID_1_">
	<path id="XMLID_21_" class="st0" d="M231.1,149.7c2.1-6.4,2.1-13.1,3.4-19.6c0.5-2.7-1.8-1.8-3-1.7c-8.1,0.4-16.3,1-24.4,1.5
		c-54.8,3.9-109.6,7.7-164.4,11.6c-7.1,0.5-12.9-4.4-13.2-11.5c-1.2-25.6-2.3-51.2-3.3-76.9c-0.3-6.4,0.8-7.3,7.2-6.8
		C89,50.2,144.6,54.1,200.3,58c10.6,0.7,21.3,1.4,31.9,2.1c1.7,0.1,3.5,0.6,3.1-2.3c-1.5-10.2-1.9-20.5-4.3-30.6
		c-0.3-0.2-0.5-0.3-0.4-0.5c0.1-0.2,0.2-0.3,0.3-0.3c0.5-2.3-0.8-5.3,2.2-6.6c3.1-1.3,4.9,1.1,7,2.7c28.8,22.3,57.6,44.6,86.4,66.9
		c3.4,2.6,6.5,5.6,9.6,8.7c3,3.1,1.3,5.3-1.7,7.1c-8.9,5.5-17.8,11-26.8,16.5c-21.1,12.9-42.3,25.9-63.4,38.8
		c-3.4,2.1-6.1,3.6-8.6-1.7c-1.1-2.4-5.4-3.2-4.8-7.3C230.4,150.8,230.3,150.2,231.1,149.7z"/>
	<path id="XMLID_20_" class="st1" d="M230.9,26.4c0.3,0.3,0.3,0.5,0.1,0.8c-0.1,1.3-0.2,2.7-0.4,5.1
		C229.8,29.5,229.5,27.9,230.9,26.4z"/>
	<path id="XMLID_19_" class="st2" d="M231.1,149.7c-0.1,0.6-0.1,1.1-0.2,1.7c-1.4-1.5-1.2-3.2-0.3-5.7
		C230.8,147.5,230.9,148.6,231.1,149.7z"/>
	<path id="XMLID_18_" class="st3" d="M239.9,145.3c1.2-8.3,2.3-16,3.5-23.7c0.8-5.4-1.1-7.4-6.5-6.9c-21.4,1.6-42.8,3.1-64.2,4.7
		c-26.7,1.9-53.4,3.9-80.1,5.7c-16.9,1.2-33.9,2.3-50.8,3.4c-2.7,0.2-4.8,0.3-4.9-3.6c-0.8-21.6-1.7-43.2-2.9-64.8
		C33.6,55,35.3,54,40,54.4c30.8,2.4,61.7,4.6,92.6,6.7c21.2,1.5,42.5,2.8,63.7,4.2c13.1,0.9,26.2,1.8,39.3,2.9
		c6.9,0.6,8.6-1.3,7.6-8.2c-1.2-8.9-2.2-17.8-3.5-27.9c5.9,4.4,10.9,8.1,15.8,11.9c20.9,16.2,41.8,32.5,62.7,48.6
		c2.5,1.9,3.7,3.3,0.2,5.4c-25.5,15.5-50.9,31-76.3,46.6C241.8,144.8,241.3,144.9,239.9,145.3z"/>
</g>
</svg>
