<?xml version="1.0" encoding="utf-8"?>
<!-- Generator: Adobe Illustrator 19.0.0, SVG Export Plug-In . SVG Version: 6.00 Build 0)  -->
<svg version="1.1" id="Laag_1" xmlns="http://www.w3.org/2000/svg" xmlns:xlink="http://www.w3.org/1999/xlink" x="0px" y="0px"
	 viewBox="0 0 113 115" style="enable-background:new 0 0 113 115;" xml:space="preserve">
<style type="text/css">
	.st0{fill:#FFFFFF;}
</style>
<g id="XMLID_2_">
	<path id="XMLID_263_" d="M60.7,107c-2.3,0-4.7,0-7,0c-0.3-0.1-0.7-0.3-1-0.3c-17.1-2.4-28.6-11.7-34.6-27.8
		c-1.1-3.1-1.5-6.5-2.3-9.7c0-2.2,0-4.4,0-6.6c0.2-1.3,0.4-2.6,0.7-4C19.5,43.5,28,32.9,42.2,27.2c3.7-1.5,7.9-2,11.8-2.9
		c2.2,0,4.4,0,6.6,0c1.2,0.2,2.4,0.5,3.6,0.7c16,3.2,26.7,12.4,32.1,27.8c1.1,3.1,1.5,6.5,2.2,9.8c0,2.2,0,4.4,0,6.6
		c-0.2,1.2-0.4,2.5-0.7,3.7c-3.4,16.2-12.9,27-28.6,32.3C66.5,106,63.5,106.3,60.7,107z M32.4,60.7c4.6,1.2,9.1,2.4,13.6,3.5
		c0.6,0.1,1.4-0.2,1.9-0.6c3.6-2.9,7.2-5.9,10.7-8.9c0.5-0.4,0.9-1.4,0.9-2c-0.5-4.2-1.1-8.3-1.8-12.5c-0.1-0.5-0.7-1.2-1.2-1.4
		c-3.6-1.2-7.3-2.5-11-3.5c-1-0.3-2.7-0.3-3.4,0.3c-3.8,3.2-7.4,6.6-10.9,10c-0.5,0.5-0.7,1.6-0.6,2.3
		C31.2,52.2,31.8,56.5,32.4,60.7z M32.4,62.4c-0.4,0.3-0.9,0.5-1.2,0.8c-2.2,2.9-4.5,5.8-6.6,8.8c-0.3,0.4-0.5,1.2-0.3,1.6
		c1.7,4.4,3.4,8.7,5.2,13c0.3,0.6,1,1.2,1.7,1.4c3.9,1.3,7.8,2.5,11.7,3.7c0.6,0.2,1.6-0.1,2-0.5c2.6-3.1,5.1-6.3,7.5-9.5
		c0.3-0.4,0.3-1.3,0.1-1.8c-1.7-4.3-3.4-8.5-5.1-12.7c-0.2-0.5-0.7-1.1-1.2-1.2C41.6,64.9,37.1,63.7,32.4,62.4z M85.8,55.3
		c-0.5-4.5-1-8.6-1.5-12.6c-0.1-0.6-0.4-1.3-0.9-1.7c-3.8-3.2-8-5.8-12.7-7.5c-0.5-0.2-1.1-0.3-1.5-0.1C66.1,35,63,36.7,60,38.5
		c-0.4,0.2-0.7,0.9-0.7,1.3c0.6,4.3,1.2,8.6,1.9,12.8c0.1,0.6,0.6,1.4,1.1,1.7c4,2.6,8.1,5.1,12.1,7.6c0.4,0.2,1.2,0.3,1.6,0
		c2.9-1.7,5.9-3.5,8.7-5.4C85.3,56.2,85.5,55.5,85.8,55.3z M45.7,93.3c2,2.4,4,4.9,6,7.3c0.3,0.4,1,0.7,1.5,0.8
		c5.7,1.1,11.2,0.3,16.6-1.5c0.4-0.1,0.7-0.4,1-0.7c2.1-2.7,4.1-5.5,6.2-8.2c0.6-0.7,0.6-1.3,0-2.1c-2-2.3-3.8-4.8-5.8-7.1
		C70.7,81.4,69.7,81,69,81c-4.5,0.2-9,0.6-13.5,1c-0.5,0-1.2,0.3-1.5,0.7C51.2,86.2,48.5,89.7,45.7,93.3z M86.7,57.5
		c-3.5,2.1-6.9,4.1-10.2,6.3c-0.5,0.3-0.8,1-1,1.6c-1.1,4.4-2.2,8.7-3.3,13.1C72,79.1,72,80,72.3,80.4c2.2,2.8,4.6,5.5,6.9,8.4
		c3.1-1.7,6.2-3.3,9.2-5c0.4-0.2,0.8-0.7,1-1.2c2.5-4.9,3.9-10.1,4-15.7c0-0.7-0.2-1.6-0.6-2.2C90.9,62.2,88.7,59.9,86.7,57.5z
		 M44.9,27.9c-10.4,3.7-18,10.2-23,19.7c2.4-0.5,4.5-1,6.6-1.5c0.6-0.2,1.3-0.5,1.8-1c3.5-4.1,7.2-7.8,11.8-10.7
		c0.4-0.2,0.8-0.6,1-1C43.7,31.6,44.2,29.9,44.9,27.9z M17.6,67.1c0.5,10.1,4.2,18.5,11,25.5c0.2-1.6,0.5-3.3,0-4.7
		c-1.7-4.7-3.6-9.3-5.5-13.9c-0.3-0.7-0.6-1.5-1.1-2.1C20.7,70.4,19.3,69,17.6,67.1z M88.1,41.9c0.1-0.2,0.2-0.5,0.3-0.7
		C82.8,34.1,75.6,29.4,66.3,27c1.2,1.5,2,2.7,2.9,3.7c0.7,0.8,1.5,1.6,2.5,1.9c4.4,1.7,8.3,4.3,12.1,7.1
		C85,40.7,86.7,41.2,88.1,41.9z M96.6,61.2c-0.2,0-0.4-0.1-0.6-0.1c-0.5,1.8-1.3,3.7-1.4,5.5c-0.1,5.5-1.5,10.6-3.7,15.6
		c-0.6,1.5-0.7,3.2-1,4.8C95.1,80.5,97.3,71.3,96.6,61.2z M74,101.4c0-0.2,0-0.4-0.1-0.5c-2.2,0.4-4.3,0.6-6.4,1.1
		c-4.6,1-9.2,1.8-13.8,0.8c-2.4-0.5-4.3,0.4-6.9,1C56.4,106.1,65.3,105.4,74,101.4z"/>
	<path id="XMLID_258_" class="st0" d="M32.4,60.7c-0.6-4.3-1.3-8.5-1.8-12.7c-0.1-0.7,0.1-1.8,0.6-2.3c3.6-3.4,7.2-6.8,10.9-10
		c0.7-0.6,2.3-0.6,3.4-0.3c3.7,1,7.3,2.2,11,3.5c0.5,0.2,1.1,0.9,1.2,1.4c0.7,4.2,1.3,8.3,1.8,12.5c0.1,0.6-0.4,1.6-0.9,2
		c-3.5,3-7.1,6-10.7,8.9c-0.5,0.4-1.4,0.7-1.9,0.6C41.5,63.1,37.1,61.9,32.4,60.7z"/>
	<path id="XMLID_257_" class="st0" d="M32.4,62.4c4.7,1.3,9.3,2.4,13.8,3.7c0.5,0.1,1,0.7,1.2,1.2c1.8,4.2,3.5,8.4,5.1,12.7
		c0.2,0.5,0.2,1.4-0.1,1.8c-2.4,3.2-4.9,6.4-7.5,9.5c-0.4,0.4-1.4,0.7-2,0.5c-3.9-1.1-7.8-2.4-11.7-3.7c-0.7-0.2-1.4-0.8-1.7-1.4
		c-1.8-4.3-3.5-8.7-5.2-13c-0.2-0.4,0-1.2,0.3-1.6c2.2-3,4.4-5.9,6.6-8.8C31.5,62.9,32,62.7,32.4,62.4z"/>
	<path id="XMLID_256_" class="st0" d="M85.8,55.3c-0.2,0.3-0.5,1-1,1.3c-2.9,1.9-5.8,3.6-8.7,5.4c-0.4,0.2-1.2,0.2-1.6,0
		c-4.1-2.5-8.1-5-12.1-7.6c-0.5-0.3-1-1.1-1.1-1.7c-0.7-4.3-1.3-8.6-1.9-12.8c-0.1-0.4,0.3-1.1,0.7-1.3c3-1.8,6-3.5,9.1-5.1
		c0.4-0.2,1-0.1,1.5,0.1c4.7,1.7,8.9,4.3,12.7,7.5c0.5,0.4,0.8,1.1,0.9,1.7C84.8,46.7,85.2,50.7,85.8,55.3z"/>
	<path id="XMLID_255_" class="st0" d="M45.7,93.3c2.8-3.6,5.5-7.1,8.2-10.6c0.3-0.4,1-0.7,1.5-0.7c4.5-0.4,9-0.8,13.5-1
		c0.7,0,1.7,0.4,2.1,0.9c2,2.3,3.9,4.7,5.8,7.1c0.6,0.8,0.6,1.3,0,2.1c-2.1,2.7-4.1,5.5-6.2,8.2c-0.2,0.3-0.6,0.6-1,0.7
		c-5.4,1.8-10.9,2.6-16.6,1.5c-0.5-0.1-1.2-0.4-1.5-0.8C49.6,98.2,47.7,95.8,45.7,93.3z"/>
	<path id="XMLID_254_" class="st0" d="M86.7,57.5c2.1,2.4,4.2,4.7,6.2,7.2c0.4,0.5,0.6,1.4,0.6,2.2c-0.1,5.5-1.6,10.7-4,15.7
		c-0.2,0.5-0.6,0.9-1,1.2c-3,1.7-6.1,3.3-9.2,5c-2.4-2.8-4.7-5.5-6.9-8.4C72,80,72,79.1,72.2,78.5c1-4.4,2.1-8.8,3.3-13.1
		c0.2-0.6,0.5-1.3,1-1.6C79.8,61.6,83.2,59.6,86.7,57.5z"/>
	<path id="XMLID_253_" class="st0" d="M44.9,27.9c-0.7,2-1.3,3.8-1.9,5.5c-0.2,0.4-0.6,0.8-1,1c-4.6,2.9-8.3,6.6-11.8,10.7
		c-0.4,0.5-1.1,0.8-1.8,1c-2.1,0.6-4.2,1-6.6,1.5C26.9,38.1,34.5,31.6,44.9,27.9z"/>
	<path id="XMLID_252_" class="st0" d="M17.6,67.1c1.7,1.8,3.1,3.3,4.4,4.8c0.5,0.6,0.8,1.3,1.1,2.1c1.9,4.6,3.8,9.2,5.5,13.9
		c0.5,1.4,0.2,3.1,0,4.7C21.8,85.6,18.1,77.3,17.6,67.1z"/>
	<path id="XMLID_251_" class="st0" d="M88.1,41.9c-1.5-0.7-3.1-1.2-4.4-2.2c-3.8-2.8-7.7-5.4-12.1-7.1c-0.9-0.4-1.8-1.2-2.5-1.9
		c-0.9-1-1.7-2.2-2.9-3.7c9.3,2.4,16.5,7.1,22.2,14.2C88.3,41.5,88.2,41.7,88.1,41.9z"/>
	<path id="XMLID_250_" class="st0" d="M96.6,61.2c0.7,10.1-1.4,19.3-6.6,25.7c0.3-1.6,0.4-3.3,1-4.8c2.1-5,3.5-10.1,3.7-15.6
		c0-1.9,0.9-3.7,1.4-5.5C96.2,61.1,96.4,61.1,96.6,61.2z"/>
	<path id="XMLID_249_" class="st0" d="M74,101.4c-8.6,4-17.5,4.7-27.2,2.3c2.6-0.5,4.5-1.5,6.9-1c4.6,1,9.2,0.2,13.8-0.8
		c2.1-0.5,4.3-0.8,6.4-1.1C73.9,101.1,73.9,101.3,74,101.4z"/>
</g>
</svg>
