<?xml version="1.0" encoding="utf-8"?>
<!-- Generator: Adobe Illustrator 19.0.0, SVG Export Plug-In . SVG Version: 6.00 Build 0)  -->
<svg version="1.1" id="Laag_1" xmlns="http://www.w3.org/2000/svg" xmlns:xlink="http://www.w3.org/1999/xlink" x="0px" y="0px"
	 viewBox="0 0 2623.8 1652.5" style="enable-background:new 0 0 2623.8 1652.5;" xml:space="preserve">
<style type="text/css">
	.st0{fill:#519733;}
	.st1{fill:#5CA531;}
	.st2{fill:#A3195B;}
	.st3{fill:#575756;}
	.st4{fill:#706F6F;}
	.st5{fill:#878787;}
	.st6{fill:#E71D73;}
	.st7{fill:#FFFFFF;}
</style>
<rect id="XMLID_1_" x="0" y="1302.7" class="st0" width="174.9" height="174.9"/>
<rect id="XMLID_5_" x="174.9" y="1302.7" class="st1" width="174.9" height="174.9"/>
<rect id="XMLID_7_" x="349.8" y="1302.7" class="st0" width="174.9" height="174.9"/>
<rect id="XMLID_3_" x="524.8" y="1302.7" class="st1" width="174.9" height="174.9"/>
<rect id="XMLID_23_" x="699.7" y="1302.7" class="st0" width="174.9" height="174.9"/>
<rect id="XMLID_20_" x="874.6" y="1302.7" class="st1" width="174.9" height="174.9"/>
<rect id="XMLID_16_" x="1049.5" y="1302.7" class="st0" width="174.9" height="174.9"/>
<rect id="XMLID_10_" x="1224.5" y="1302.7" class="st1" width="174.9" height="174.9"/>
<rect id="XMLID_41_" x="1399.4" y="1302.7" class="st0" width="174.9" height="174.9"/>
<rect id="XMLID_38_" x="1574.3" y="1302.7" class="st1" width="174.9" height="174.9"/>
<rect id="XMLID_35_" x="1749.2" y="1302.7" class="st0" width="174.9" height="174.9"/>
<rect id="XMLID_32_" x="1924.2" y="1302.7" class="st1" width="174.9" height="174.9"/>
<rect id="XMLID_29_" x="2099.1" y="1302.7" class="st0" width="174.9" height="174.9"/>
<rect id="XMLID_4_" x="2448.9" y="1302.7" class="st0" width="174.9" height="174.9"/>
<rect id="XMLID_26_" x="2274" y="1302.7" class="st1" width="174.9" height="174.9"/>
<rect id="XMLID_86_" x="0" y="1127.8" class="st1" width="174.9" height="174.9"/>
<rect id="XMLID_83_" x="174.9" y="1127.8" class="st0" width="174.9" height="174.9"/>
<rect id="XMLID_80_" x="349.8" y="1127.8" class="st1" width="174.9" height="174.9"/>
<rect id="XMLID_77_" x="524.8" y="1127.8" class="st0" width="174.9" height="174.9"/>
<rect id="XMLID_74_" x="699.7" y="1127.8" class="st1" width="174.9" height="174.9"/>
<rect id="XMLID_71_" x="874.6" y="1127.8" class="st0" width="174.9" height="174.9"/>
<rect id="XMLID_68_" x="1049.5" y="1127.8" class="st1" width="174.9" height="174.9"/>
<rect id="XMLID_65_" x="1224.5" y="1127.8" class="st0" width="174.9" height="174.9"/>
<rect id="XMLID_62_" x="1399.4" y="1127.8" class="st1" width="174.9" height="174.9"/>
<rect id="XMLID_59_" x="1574.3" y="1127.8" class="st0" width="174.9" height="174.9"/>
<rect id="XMLID_56_" x="1749.2" y="1127.8" class="st1" width="174.9" height="174.9"/>
<rect id="XMLID_44_" x="1924.2" y="1127.8" class="st0" width="174.9" height="174.9"/>
<rect id="XMLID_13_" x="2274" y="1127.8" class="st0" width="174.9" height="174.9"/>
<rect id="XMLID_9_" x="2099.1" y="1127.8" class="st1" width="174.9" height="174.9"/>
<rect id="XMLID_89_" x="2448.9" y="1127.8" class="st1" width="174.9" height="174.9"/>
<rect id="XMLID_272_" x="0" y="1477.6" class="st1" width="174.9" height="174.9"/>
<rect id="XMLID_269_" x="174.9" y="1477.6" class="st0" width="174.9" height="174.9"/>
<rect id="XMLID_266_" x="349.8" y="1477.6" class="st1" width="174.9" height="174.9"/>
<rect id="XMLID_263_" x="524.8" y="1477.6" class="st0" width="174.9" height="174.9"/>
<rect id="XMLID_260_" x="699.7" y="1477.6" class="st1" width="174.9" height="174.9"/>
<rect id="XMLID_257_" x="874.6" y="1477.6" class="st0" width="174.9" height="174.9"/>
<rect id="XMLID_254_" x="1049.5" y="1477.6" class="st1" width="174.9" height="174.9"/>
<rect id="XMLID_251_" x="1224.5" y="1477.6" class="st0" width="174.9" height="174.9"/>
<rect id="XMLID_248_" x="1399.4" y="1477.6" class="st1" width="174.9" height="174.9"/>
<rect id="XMLID_245_" x="1574.3" y="1477.6" class="st0" width="174.9" height="174.9"/>
<rect id="XMLID_242_" x="1749.2" y="1477.6" class="st1" width="174.9" height="174.9"/>
<rect id="XMLID_239_" x="1924.2" y="1477.6" class="st0" width="174.9" height="174.9"/>
<rect id="XMLID_236_" x="2274" y="1477.6" class="st0" width="174.9" height="174.9"/>
<rect id="XMLID_233_" x="2099.1" y="1477.6" class="st1" width="174.9" height="174.9"/>
<rect id="XMLID_230_" x="2448.9" y="1477.6" class="st1" width="174.9" height="174.9"/>
<rect id="XMLID_179_" x="0" y="952.9" class="st0" width="174.9" height="174.9"/>
<rect id="XMLID_176_" x="174.9" y="952.9" class="st1" width="174.9" height="174.9"/>
<rect id="XMLID_173_" x="349.8" y="952.9" class="st0" width="174.9" height="174.9"/>
<rect id="XMLID_170_" x="524.8" y="952.9" class="st1" width="174.9" height="174.9"/>
<rect id="XMLID_167_" x="699.7" y="952.9" class="st0" width="174.9" height="174.9"/>
<rect id="XMLID_164_" x="874.6" y="952.9" class="st1" width="174.9" height="174.9"/>
<rect id="XMLID_161_" x="1049.5" y="952.9" class="st0" width="174.9" height="174.9"/>
<rect id="XMLID_158_" x="1224.5" y="952.9" class="st1" width="174.9" height="174.9"/>
<rect id="XMLID_155_" x="1399.4" y="952.9" class="st0" width="174.9" height="174.9"/>
<rect id="XMLID_152_" x="1574.3" y="952.9" class="st1" width="174.9" height="174.9"/>
<rect id="XMLID_149_" x="1749.2" y="952.9" class="st0" width="174.9" height="174.9"/>
<rect id="XMLID_146_" x="1924.2" y="952.9" class="st1" width="174.9" height="174.9"/>
<rect id="XMLID_143_" x="2099.1" y="952.9" class="st0" width="174.9" height="174.9"/>
<rect id="XMLID_140_" x="2448.9" y="952.9" class="st0" width="174.9" height="174.9"/>
<rect id="XMLID_137_" x="2274" y="952.9" class="st1" width="174.9" height="174.9"/>
<rect id="XMLID_134_" x="0" y="777.9" class="st1" width="174.9" height="174.9"/>
<rect id="XMLID_131_" x="174.9" y="777.9" class="st0" width="174.9" height="174.9"/>
<rect id="XMLID_128_" x="349.8" y="777.9" class="st1" width="174.9" height="174.9"/>
<rect id="XMLID_125_" x="524.8" y="777.9" class="st0" width="174.9" height="174.9"/>
<rect id="XMLID_122_" x="699.7" y="777.9" class="st1" width="174.9" height="174.9"/>
<rect id="XMLID_119_" x="874.6" y="777.9" class="st0" width="174.9" height="174.9"/>
<rect id="XMLID_116_" x="1049.5" y="777.9" class="st1" width="174.9" height="174.9"/>
<rect id="XMLID_113_" x="1224.5" y="777.9" class="st0" width="174.9" height="174.9"/>
<rect id="XMLID_110_" x="1399.4" y="777.9" class="st1" width="174.9" height="174.9"/>
<rect id="XMLID_107_" x="1574.3" y="777.9" class="st0" width="174.9" height="174.9"/>
<rect id="XMLID_104_" x="1749.2" y="777.9" class="st1" width="174.9" height="174.9"/>
<rect id="XMLID_101_" x="1924.2" y="777.9" class="st0" width="174.9" height="174.9"/>
<rect id="XMLID_98_" x="2274" y="777.9" class="st0" width="174.9" height="174.9"/>
<rect id="XMLID_95_" x="2099.1" y="777.9" class="st1" width="174.9" height="174.9"/>
<rect id="XMLID_92_" x="2448.9" y="777.9" class="st1" width="174.9" height="174.9"/>
<rect id="XMLID_182_" x="0" y="619.7" class="st2" width="1311.9" height="158.3"/>
<rect id="XMLID_188_" x="0" y="413.1" class="st3" width="2623.8" height="206.6"/>
<rect id="XMLID_193_" x="0" y="206.6" class="st4" width="2623.8" height="206.6"/>
<rect id="XMLID_194_" x="0" y="0" class="st5" width="2623.8" height="206.6"/>
<rect id="XMLID_184_" x="1311.9" y="619.7" class="st6" width="1311.9" height="158.3"/>
<rect id="XMLID_190_" x="1298.6" y="-55.5" transform="matrix(2.655245e-003 1 -1 2.655245e-003 2385.7439 -233.3152)" class="st7" width="22.5" height="2269.8"/>
<rect id="XMLID_191_" x="174.5" y="781.1" transform="matrix(-1 2.655242e-003 -2.655242e-003 -1 374.0049 1874.2155)" class="st7" width="22.5" height="312.6"/>
<rect id="XMLID_192_" x="2421.8" y="776.1" transform="matrix(-1 2.655242e-003 -2.655242e-003 -1 4868.6172 1858.2267)" class="st7" width="22.5" height="312.6"/>
<circle id="XMLID_183_" class="st7" cx="1311.9" cy="1215.2" r="41"/>
</svg>
